# xmcd CD database file
#
# Track frame offsets:
#	150
#	16450
#	35850
#	56060
#	68461
#	70971
#	84681
#	97114
#	108138
#	114236
#	125298
#	141648
#	153523
#	161180
#	172944
#	189516
#	215754
#	221929
#	232675
#	248672
#
# Disc length: 3508 seconds
#
# Revision: 0
# Processed by: cddbd v1.5.2PL0 Copyright (c) Steve Scherf et al.
# Submitted via: CDex 1.70beta2
#
DISCID=230db214
DTITLE=Various Artist - Country Music Hall Of Fame [CD2]
DYEAR=1900
DGENRE=Country
TTITLE0=01 - Willie Nelson - Georgia on my mind
TTITLE1=02 - Jerry Lee Lewis - (There must be) More to love than this
TTITLE2=03 - Loretta Lynn - I fall to pieces
TTITLE3=04 - Loretta Lynn - Walkin' after midnight
TTITLE4=05 - Loretta Lyn - Crazy
TTITLE5=06 - Johnny Cash - Jackson
TTITLE6=07 - Charlie Pride - All I have to offer you is meYour My Best Friend
TTITLE7=08 - Don Williams - You're my best friend
TTITLE8=09 - Tom T Hall  - That song's driving me crazy
TTITLE9=10 - Tammy Wynette - D.I.V.O.R.C.E
TTITLE10=11 - Merle Haggard - The Fighting Side Of Me
TTITLE11=12 - Marty Robbins - Devil Woman
TTITLE12=13 - Willie Nelson - Stardust
TTITLE13=14 - Don Wiliams - Tulsa Time
TTITLE14=15 - Jim Reeves - In a mansion stands my love
TTITLE15=16 - Brenda Lee - Jambala
TTITLE16=17 - Brenda Lee - Is it true
TTITLE17=18 - Brenda Lee - My whole wqorld is falling down
TTITLE18=19 - Brenda Lee - End of my world
TTITLE19=20 - Brenda Lee - All alone am I
EXTD=
EXTT0=
EXTT1=
EXTT2=
EXTT3=
EXTT4=
EXTT5=
EXTT6=
EXTT7=
EXTT8=
EXTT9=
EXTT10=
EXTT11=
EXTT12=
EXTT13=
EXTT14=
EXTT15=
EXTT16=
EXTT17=
EXTT18=
EXTT19=
PLAYORDER=
